<?xml version="1.0" standalone="no"?>
<!DOCTYPE svg PUBLIC "-//W3C//DTD SVG 20010904//EN"
 "http://www.w3.org/TR/2001/REC-SVG-20010904/DTD/svg10.dtd">
<svg version="1.0" xmlns="http://www.w3.org/2000/svg"
 width="700.000000pt" height="700.000000pt" viewBox="0 0 700.000000 700.000000"
 preserveAspectRatio="xMidYMid meet">
<metadata>
Created by potrace 1.14, written by Peter Selinger 2001-2017
</metadata>
<g transform="translate(0.000000,700.000000) scale(0.100000,-0.100000)"
fill="#000000" stroke="none">
<path d="M5277 6956 l-42 -45 -29 24 c-24 19 -33 21 -50 12 -12 -7 -25 -18
-29 -25 -6 -9 -12 -10 -21 -2 -10 7 -17 6 -26 -5 -17 -20 -35 -19 -51 4 -8 11
-32 22 -56 26 -39 6 -43 5 -49 -19 -5 -23 -8 -24 -28 -11 -12 8 -45 17 -74 19
-43 5 -52 3 -52 -10 0 -14 -3 -14 -15 -4 -21 17 -34 4 -85 -80 -69 -114 -157
-368 -183 -525 -3 -16 -12 -70 -20 -120 -14 -81 -25 -166 -42 -320 -11 -106
-17 -391 -19 -915 l-2 -544 -29 -7 c-100 -21 -285 -59 -315 -64 -19 -3 -51
-10 -70 -15 -19 -5 -55 -12 -80 -15 -25 -3 -52 -8 -60 -10 -8 -2 -51 -7 -95
-10 -44 -4 -98 -9 -120 -11 -22 -2 -75 -6 -118 -9 -42 -3 -94 -7 -115 -9 -20
-2 -71 -7 -112 -11 -208 -18 -228 -20 -352 -46 -119 -24 -204 -52 -282 -90
-62 -31 -70 -34 -62 -21 3 5 7 22 10 38 5 26 69 282 97 384 5 19 12 44 14 55
11 48 89 301 130 422 34 98 43 137 36 151 -13 25 5 55 30 47 20 -7 25 4 10 21
-14 14 -20 84 -11 110 5 13 18 32 28 42 11 11 23 37 27 58 4 22 7 39 6 39 0 0
6 22 14 49 18 59 19 69 4 60 -12 -7 -13 -16 26 221 53 327 80 464 121 615 20
71 24 108 20 149 -10 94 -46 206 -93 293 -26 48 -43 54 -43 15 -1 -17 -5 -14
-22 18 -16 29 -23 35 -26 23 -4 -21 -13 -23 -29 -7 -8 8 -28 8 -70 1 -47 -8
-61 -7 -74 4 -19 17 -44 10 -81 -23 -31 -30 -56 -25 -96 18 l-27 29 -86 -24
c-60 -16 -91 -20 -103 -14 -24 13 -91 0 -154 -29 -77 -36 -149 -114 -198 -214
-35 -69 -99 -234 -108 -274 -1 -5 -10 -35 -19 -66 -40 -135 -144 -581 -161
-694 -4 -22 -15 -83 -26 -135 -10 -52 -21 -108 -23 -125 -3 -16 -15 -85 -26
-152 -12 -67 -23 -134 -25 -150 -2 -15 -8 -55 -14 -88 -6 -33 -14 -80 -17
-105 -3 -25 -10 -70 -15 -100 -11 -66 -17 -108 -25 -175 -4 -27 -8 -57 -10
-65 -2 -8 -13 -85 -25 -170 -11 -85 -22 -164 -24 -175 -2 -11 -7 -47 -10 -80
-4 -33 -9 -71 -11 -85 -7 -43 -27 -202 -40 -315 -3 -27 -10 -84 -15 -125 -5
-41 -12 -100 -15 -130 -3 -30 -8 -71 -10 -90 -2 -19 -7 -60 -10 -90 -3 -30 -8
-71 -10 -90 -3 -19 -7 -62 -10 -95 -2 -33 -7 -76 -9 -95 -3 -19 -8 -66 -11
-105 -3 -38 -8 -92 -10 -120 -7 -73 -15 -181 -20 -255 -2 -36 -6 -101 -9 -145
-10 -167 -18 -380 -13 -375 3 3 8 48 12 100 4 52 8 101 10 110 1 8 6 56 10
105 4 50 9 98 11 108 2 10 6 48 9 85 4 37 8 78 10 92 2 14 6 45 10 70 6 47 15
114 20 140 1 8 6 35 10 60 21 127 36 193 52 220 12 22 13 11 8 -110 -3 -74 -7
-144 -9 -155 -3 -19 -15 -107 -21 -165 -3 -30 -16 -117 -21 -145 -3 -11 -7
-38 -9 -60 -3 -22 -7 -51 -10 -65 -5 -28 -11 -64 -20 -125 -3 -23 -7 -50 -9
-60 -17 -90 -28 -405 -14 -405 4 0 8 12 9 28 1 39 4 63 23 192 9 63 19 133 22
155 3 22 7 51 9 65 2 14 9 63 15 110 6 47 13 103 17 125 3 22 6 46 6 52 0 9 4
10 12 3 9 -8 14 5 19 52 7 56 49 322 60 373 16 76 47 188 65 230 l20 50 -3
-110 c-4 -102 -4 -105 5 -40 10 76 36 160 55 176 24 20 38 -65 19 -118 -2 -7
0 -13 5 -13 6 0 10 6 11 13 1 19 5 34 37 151 30 104 50 154 39 91 -3 -16 -9
-57 -12 -90 -5 -58 -13 -123 -20 -175 -4 -28 -24 -175 -29 -217 -2 -16 -11
-71 -20 -123 -15 -91 -18 -129 -32 -360 -3 -58 -8 -113 -10 -124 -2 -10 0 -16
3 -12 8 8 9 10 17 121 13 167 16 200 26 280 6 44 13 98 16 120 5 37 27 174 39
235 13 73 59 250 63 246 5 -6 4 -152 -3 -184 -2 -13 0 -20 6 -17 5 4 9 12 9
18 0 7 10 23 21 37 11 14 18 20 15 14 -3 -6 -1 -24 4 -40 6 -22 9 -24 10 -9 2
30 8 59 35 175 43 189 48 210 56 210 4 0 6 -8 4 -18 -1 -10 -6 -81 -10 -157
-4 -77 -8 -158 -10 -180 -2 -22 -7 -94 -11 -160 -4 -66 -8 -129 -9 -140 -3
-29 -19 -159 -20 -165 -1 -3 -5 -27 -10 -55 -4 -27 -9 -59 -11 -70 -2 -11 -7
-33 -10 -50 -3 -16 -11 -59 -19 -95 -8 -36 -17 -83 -20 -105 -3 -22 -10 -67
-15 -100 -5 -33 -12 -85 -15 -115 -3 -30 -8 -66 -10 -80 -2 -14 -7 -50 -10
-80 -3 -30 -8 -66 -10 -80 -2 -14 -6 -56 -10 -95 -3 -38 -8 -81 -10 -95 -2
-14 -7 -59 -10 -100 -3 -41 -8 -93 -10 -115 -14 -139 -16 -169 -12 -165 5 5
10 42 22 148 3 26 8 58 10 72 3 14 7 52 10 85 3 33 8 76 11 95 3 19 7 53 9 75
3 22 7 56 10 75 2 19 7 62 11 95 3 33 7 67 9 75 2 8 7 42 10 75 10 89 13 113
21 148 l7 32 12 -29 c13 -31 12 -34 31 114 2 19 11 69 19 110 l14 75 -5 -70
c-4 -38 -7 -77 -9 -85 -2 -8 -6 -53 -10 -100 -3 -47 -8 -92 -10 -100 -2 -8 -7
-46 -10 -85 -4 -38 -8 -81 -10 -95 -1 -14 -6 -54 -9 -90 -4 -36 -9 -81 -11
-100 -3 -19 -7 -57 -10 -85 -11 -110 -16 -161 -20 -185 -2 -14 -7 -59 -10
-100 -4 -41 -8 -86 -10 -100 -5 -34 -13 -111 -21 -190 -3 -36 -8 -68 -11 -73
-2 -4 2 -7 9 -7 9 0 9 -3 -2 -10 -10 -6 -11 -10 -2 -10 6 0 12 -5 12 -11 0 -5
-4 -7 -10 -4 -5 3 -10 -1 -10 -10 0 -9 4 -14 8 -11 5 3 7 -12 6 -32 -1 -20 -5
-111 -8 -202 -4 -91 -9 -180 -11 -197 -2 -18 -1 -33 4 -33 4 0 8 6 8 13 0 25
30 229 38 257 2 8 6 35 9 60 3 25 8 54 10 65 2 11 7 45 11 75 4 30 9 62 10 70
2 8 6 38 9 65 4 28 9 61 11 75 3 21 17 122 30 210 2 14 6 45 10 70 8 52 10 67
25 175 6 44 13 95 16 114 2 18 7 59 10 90 2 31 7 63 9 71 2 8 7 46 11 85 3 38
8 78 10 90 2 11 8 45 13 75 24 137 53 302 67 380 9 47 17 94 19 105 1 11 6 35
9 53 3 17 8 47 11 65 13 73 27 107 54 129 26 21 29 31 35 100 4 43 8 83 11 90
2 7 6 29 9 48 15 101 93 320 137 381 24 34 88 70 115 65 11 -2 48 -7 84 -11
36 -3 72 -8 80 -10 8 -2 40 -7 70 -10 30 -4 84 -10 119 -15 60 -8 77 -6 250
41 434 117 619 169 661 184 41 14 271 115 312 135 33 18 135 39 193 41 97 2
92 5 88 -53 -5 -78 -4 -885 1 -1018 3 -63 7 -194 11 -290 9 -260 23 -565 30
-675 2 -27 6 -225 9 -440 5 -362 11 -540 21 -597 2 -13 6 -48 9 -78 4 -30 8
-66 11 -80 3 -14 7 -47 11 -75 3 -27 12 -86 19 -130 16 -93 30 -205 28 -223 0
-6 2 -12 6 -12 4 0 8 291 8 646 0 543 2 647 14 655 21 13 23 -14 9 -107 -10
-65 -10 -85 0 -104 7 -14 14 -58 16 -100 7 -228 15 -429 20 -535 8 -178 12
-273 13 -337 1 -32 5 -58 9 -58 4 0 7 26 6 57 -15 416 -22 1417 -11 1647 7
152 16 204 18 105 0 -30 2 -79 4 -109 1 -30 5 -145 9 -255 4 -110 9 -245 11
-300 9 -188 14 -320 20 -485 4 -91 8 -199 10 -240 2 -41 5 -119 6 -173 1 -98
12 -126 15 -39 2 60 14 309 19 387 7 100 18 398 16 430 0 17 -1 66 -1 110 0
62 -2 76 -11 62 -15 -26 -39 -4 -31 28 4 14 10 25 15 25 38 1 37 2 37 -102 0
-56 2 -99 4 -97 3 2 8 31 11 64 4 33 9 63 11 66 1 3 6 43 10 90 3 46 8 86 9
87 2 2 6 -18 10 -45 3 -26 10 -64 15 -83 l8 -35 2 40 c4 74 17 95 17 27 0 -69
6 -83 29 -61 13 14 13 22 -1 75 -17 64 -18 166 -3 257 11 62 28 77 29 25 0
-18 2 -40 3 -48 5 -26 17 -248 21 -410 13 -431 16 -519 31 -725 4 -55 6 -109
6 -120 -1 -12 2 -15 6 -8 4 7 4 50 0 95 -8 88 -10 282 -4 383 2 33 7 125 11
205 4 80 8 163 10 185 2 22 7 141 10 264 3 123 10 244 15 268 8 32 7 51 -3 71
-7 15 -12 43 -12 62 1 19 3 57 4 85 1 43 3 47 16 35 8 -8 17 -42 20 -75 3 -33
8 -71 10 -85 3 -14 7 -56 10 -95 4 -38 8 -86 10 -105 16 -153 16 -196 1 -224
-8 -16 -13 -32 -11 -36 13 -20 47 -267 48 -347 0 -7 4 -13 9 -13 4 0 8 -5 8
-11 0 -5 -4 -8 -9 -5 -5 4 -8 -2 -6 -11 2 -10 4 -22 4 -26 1 -5 4 -6 9 -4 4 3
8 -8 9 -24 1 -17 -3 -29 -10 -29 -9 0 -9 -2 0 -8 7 -5 14 -72 18 -202 4 -107
9 -222 10 -255 2 -33 4 -131 5 -218 2 -86 6 -157 9 -157 8 0 15 196 13 350 -2
138 -2 269 -1 300 0 14 0 48 0 75 0 28 1 61 3 75 3 14 5 36 7 50 4 46 14 -51
14 -133 0 -42 3 -77 7 -77 19 0 27 138 12 215 -10 53 -10 240 0 290 5 22 9 58
10 80 1 22 5 46 10 53 4 7 4 18 -2 25 -12 16 -8 65 6 79 8 8 7 14 -2 24 -20
19 -12 64 18 108 17 26 23 43 17 50 -10 12 -8 31 9 136 25 146 28 209 14 280
-14 72 -7 420 10 517 2 10 7 50 10 88 4 39 9 81 11 95 2 14 6 48 10 75 3 28 8
66 10 85 2 19 7 62 10 94 3 33 7 71 10 85 2 14 6 55 9 91 3 36 8 74 10 85 2
11 7 52 10 90 4 39 9 81 11 95 6 45 17 172 30 360 2 30 6 84 9 120 3 36 8 97
11 135 3 39 8 93 10 120 2 28 7 79 10 115 3 36 7 90 10 120 3 30 8 80 10 110
3 30 7 75 10 100 2 25 7 72 10 105 4 33 8 74 10 90 2 17 6 62 10 100 7 81 11
111 24 220 6 44 13 105 16 135 4 30 8 66 10 80 2 14 6 48 10 75 8 72 34 251
45 315 9 56 11 66 31 176 7 44 7 77 0 115 -6 30 -18 88 -26 129 -8 41 -17 86
-20 100 -2 14 -9 50 -15 80 -6 30 -13 66 -16 80 -7 37 -44 139 -66 185 -50 99
-103 144 -179 151 -49 4 -52 2 -92 -40z m-483 -5168 c-17 -63 -17 -71 -4 -63
11 7 2 -23 -13 -42 -5 -7 -7 -31 -5 -53 4 -50 -4 -51 -22 -2 -20 54 -15 122
16 220 3 9 9 10 23 3 18 -10 18 -14 5 -63z"/>
<path d="M1728 3075 c-3 -13 -2 -22 2 -20 11 7 20 45 10 45 -4 0 -10 -11 -12
-25z"/>
<path d="M1910 3033 c0 -17 -23 -90 -45 -145 -4 -11 0 -20 12 -26 15 -9 19 -7
20 10 1 11 7 53 13 95 7 41 9 77 6 81 -3 3 -6 -4 -6 -15z"/>
<path d="M1643 2935 c0 -8 4 -12 9 -9 5 3 6 10 3 15 -9 13 -12 11 -12 -6z"/>
<path d="M1641 2894 c0 -11 3 -14 6 -6 3 7 2 16 -1 19 -3 4 -6 -2 -5 -13z"/>
<path d="M1702 2220 c0 -19 2 -27 5 -17 2 9 2 25 0 35 -3 9 -5 1 -5 -18z"/>
<path d="M1692 2130 c0 -14 2 -19 5 -12 2 6 2 18 0 25 -3 6 -5 1 -5 -13z"/>
<path d="M1691 2084 c0 -11 3 -14 6 -6 3 7 2 16 -1 19 -3 4 -6 -2 -5 -13z"/>
<path d="M4876 1483 c11 -45 23 -71 23 -52 1 9 4 31 7 48 6 27 4 31 -15 31
-18 0 -20 -4 -15 -27z"/>
<path d="M4902 1170 c0 -14 2 -19 5 -12 2 6 2 18 0 25 -3 6 -5 1 -5 -13z"/>
<path d="M5120 1171 c0 -6 4 -13 10 -16 6 -3 7 1 4 9 -7 18 -14 21 -14 7z"/>
<path d="M4905 1120 c2 -14 5 -62 5 -107 0 -46 4 -83 9 -83 11 0 3 164 -10
193 -9 21 -9 21 -4 -3z"/>
<path d="M4913 901 c0 -11 5 -18 9 -15 4 3 5 11 1 19 -7 21 -12 19 -10 -4z"/>
<path d="M4915 841 c-3 -5 -2 -12 3 -15 5 -3 9 1 9 9 0 17 -3 19 -12 6z"/>
<path d="M4635 290 c-3 -5 -2 -18 4 -27 7 -14 9 -12 8 10 -2 30 -3 31 -12 17z"/>
<path d="M5170 250 c0 -11 2 -20 4 -20 2 0 6 9 9 20 3 11 1 20 -4 20 -5 0 -9
-9 -9 -20z"/>
<path d="M4552 235 c0 -16 2 -22 5 -12 2 9 2 23 0 30 -3 6 -5 -1 -5 -18z"/>
<path d="M5171 204 c0 -11 3 -14 6 -6 3 7 2 16 -1 19 -3 4 -6 -2 -5 -13z"/>
</g>
</svg>
